PathFileType	4	(X/Y/Z)	3_2_93_p1_0-380.trc
DataRate	CameraRate	NumFrames	NumMarkers	Units	OrigDataRate	OrigDataStartFrame	OrigNumFrames
57.0	57.0	6	27	m	57.0	95	381
Frame#	Time	RHip			RKnee			RAnkle			RBigToe			RSmallToe			RHeel			LHip			LKnee			LAnkle			LBigToe			LSmallToe			LHeel			Neck			Head			Nose			RShoulder			RElbow			RWrist			RThumb			RIndex			RPinky			LShoulder			LElbow			LWrist			LThumb			LIndex			LPinky			
		X1	Y1	Z1	X2	Y2	Z2	X3	Y3	Z3	X4	Y4	Z4	X5	Y5	Z5	X6	Y6	Z6	X7	Y7	Z7	X8	Y8	Z8	X9	Y9	Z9	X10	Y10	Z10	X11	Y11	Z11	X12	Y12	Z12	X13	Y13	Z13	X14	Y14	Z14	X15	Y15	Z15	X16	Y16	Z16	X17	Y17	Z17	X18	Y18	Z18	X19	Y19	Z19	X20	Y20	Z20	X21	Y21	Z21	X22	Y22	Z22	X23	Y23	Z23	X24	Y24	Z24	X25	Y25	Z25	X26	Y26	Z26	X27	Y27	Z27	
95	1.6666666666666667	0.2064864674296121	0.40765269893526773	0.9712720687382447	0.16756513096205833	0.31545208181691403	1.3258659165070323	0.1497765987982287	0.4590321802738402	1.7761337070423335	0.17280304050070996	0.2847472659382036	1.8206371585900314	0.23162483756924698	0.352698124031816	1.8330263222113683	0.13524134711550662	0.48081974977314673	1.8241772898341322	-0.011497972770792562	0.35304608971624496	0.9551410458546509	-0.0012414383479205863	0.3509502510833275	1.3461883878819518	-0.015770542596102787	0.4011029374337917	1.7167306735667553	0.006560080399276617	0.23418784488955288	1.8066630095885794	-0.05526379585855855	0.28209918711365656	1.7969436025925654	0.0013762117443263556	0.4763428245664225	1.8046320014274764	0.1348468932809757	0.26636902214961905	0.4185930463215562	0.1925110135418239	0.0692036136196441	0.15996435143560983	0.17308193275429662	0.08755267161246133	0.3359233439436517	0.2862028903094223	0.32240014814498563	0.4509600116538339	0.32337595000995306	0.298802895201872	0.7394873623345808	0.3154200651416529	0.17705796133186572	0.5981619273094335	0.2549910782481264	0.08616448751998629	0.592563951614686	0.27176869466032516	0.06526529150650402	0.5895570517171314	0.34393199369171873	0.06238725477860547	0.6121520607026076	-0.034508933049037585	0.24278657415552704	0.4383617561175	-0.0828000556021286	0.20037473811006873	0.700170436273661	0.01333855318431606	0.11946742286278547	0.5847476634381797	0.08421208854245003	0.03307507346411516	0.5395726442081733	0.1159167785753502	-0.015131073591878366	0.5294747838043846	0.10111417933974569	0.008537324462465828	0.5855368367957956
96	1.6842105263157894	0.2072392329366922	0.4083818138279661	0.9593838387324968	0.17128586775011498	0.3193396176957355	1.323084632120611	0.1542129743268276	0.461859463086936	1.777418496819722	0.18160526739687974	0.2827673970611127	1.819643577490087	0.24297813086147968	0.34069855940865656	1.8306792477929539	0.13037142452804454	0.46807011950436445	1.8253644052111175	-0.011163945640186601	0.35273236714018325	0.9422852579490819	-0.0014878402860564806	0.35270180069588886	1.342419503529497	-0.01448737481883318	0.4102383884110878	1.740649170594767	-0.0026227686421274768	0.26000157386187717	1.818277034094871	-0.05499728633082343	0.2865984309167266	1.8003125721159146	-0.0017891885601997507	0.48542527226482635	1.8143641428985522	0.13880483116451825	0.2687464607810149	0.41858469037480767	0.19903440501780317	0.06762377005551558	0.1539700677985359	0.17786746283359472	0.07614917541109642	0.3250133238495621	0.28565351556527574	0.33722560705466975	0.4458366190548459	0.3231775738706346	0.2757091526213258	0.7263522615169213	0.31559679512033273	0.17811453734279523	0.5950777716417204	0.2572093628435883	0.09587681737447894	0.5832691215658585	0.2709896886465614	0.06803018395167923	0.5758445344336628	0.3369655807200956	0.0660865584684268	0.6013526745661613	-0.03449331055597147	0.2411963847598063	0.4412026920507855	-0.08283209323281177	0.19883895228473805	0.6961234847931898	0.012760854391051683	0.11816649847789766	0.5666467167501387	0.06599088572322834	0.05561160285027191	0.5151702500758916	0.10332629082940561	0.005411352004373718	0.5035873803964285	0.0842940495696755	0.039464252019938355	0.5482399406125845
97	1.7017543859649122	0.20697117559674255	0.409349806459059	0.9556139028226774	0.1741509415157479	0.3299742998757783	1.319047476997094	0.15870677856478968	0.4647031196423152	1.7787023929056314	0.18154375752783025	0.2827036577013528	1.8196731934132675	0.2428984308918701	0.3398588054619894	1.8301982004127775	0.13150673491078363	0.46810829284350725	1.8193788119863834	-0.011571409456523837	0.3544925912330568	0.9353252471836603	-0.007195263809866312	0.36820248950070067	1.3404886374195109	-0.01280507213061237	0.4080886312121008	1.7257897866873857	-0.01074849617144847	0.26139836250779735	1.8199077357392595	-0.05584671060864584	0.2846002725437078	1.795020548775585	0.000341307546060953	0.4831538026874934	1.8178275672903974	0.13884671664011658	0.26943594484327454	0.4150761095636656	0.20437683364526957	0.049822354582027197	0.1505948488648096	0.18688307074745894	0.054712853453767404	0.3227436911972179	0.2858269315014607	0.338528612527215	0.44917577276862897	0.3254002213360699	0.27452227229736526	0.7334311590074785	0.31502143308826974	0.1782966450348185	0.585268233584962	0.2571184179679345	0.09748341299708901	0.5618821699753742	0.2669224063364683	0.07981089965956743	0.5581684216700118	0.32872587005565523	0.06683799542605318	0.5908400691858138	-0.036725739540971566	0.2529253576239144	0.4391313660593083	-0.07825498890336749	0.17622214966686386	0.687054456567397	0.014187673941415752	0.1277410704190148	0.5610557154404693	0.0849658433547425	0.06091614710049056	0.49818885344872166	0.1123746991708947	0.0005846288799562626	0.4880877269297858	0.09459294827724565	0.027850255255303394	0.5390815222697858
98	1.719298245614035	0.20692366195471704	0.40962553014847136	0.9555400687142025	0.17692290946333214	0.34210798350991695	1.3240144199788393	0.157868201199524	0.46359683441085425	1.7735719613504939	0.18249573327149912	0.28301247381928163	1.815112878926601	0.23365820272696666	0.35095051417836465	1.8428615114894253	0.13798207848173996	0.4758839761462301	1.8179945715230463	-0.011535496999529824	0.35449571732281837	0.9348100138238931	-0.005727530049250292	0.37861931925835746	1.340086575579253	-0.017070346680299716	0.40475494542341606	1.7239528791659509	-0.004567542084928756	0.24751168709232926	1.8105350717274986	-0.05579047877688534	0.2844245978702821	1.7944198951622903	-0.00028817626595749156	0.48008277125165577	1.8120680925670456	0.13512078264145025	0.26684186955763967	0.41463396006607156	0.20832137118999802	0.05141823676519041	0.15003449545137745	0.18597293144745397	0.06659594766736586	0.3237327392083144	0.2813781225437461	0.3350819189891887	0.4451746740903688	0.33150193371718684	0.26197398159586854	0.7193922510913581	0.3147833862360565	0.17786497366452517	0.5853869918938954	0.25652624052751355	0.10024232682847115	0.5485296420291641	0.2667116669482881	0.08160609311918078	0.5476572398168448	0.32102138447084744	0.05513253979374267	0.5844722775474905	-0.027272724090366393	0.24348131158161823	0.434365430726395	-0.07988098533013528	0.16528570320318414	0.6769640793392776	0.01418245950734029	0.12770168809864257	0.5505091101359302	0.08118982461665143	0.07158426717454612	0.4939257828077105	0.10864315166467119	0.009072733091818117	0.4831253589381298	0.08870687418878959	0.02790870556167114	0.5355059907727875
99	1.736842105263158	0.2103267837068145	0.4098107932426435	0.9510684504562097	0.18119716132186733	0.34523064458807207	1.3250939915742972	0.16034303433642752	0.47849254714446754	1.7766818050210793	0.18234670674661665	0.28278818726697696	1.8145296448011046	0.23544377781337208	0.3634777200922534	1.8445892118094538	0.13982398731260326	0.48571086088869536	1.8205933261947356	-0.011517011376603246	0.3543827705113803	0.9346399478496672	-0.005777626270195085	0.3786674668372878	1.339966897847622	-0.017016156658058966	0.40443819482684557	1.723987729645354	-0.0024623034555298208	0.2600265830754365	1.8181317856674772	-0.055521053283777724	0.284275701165543	1.7941666403694685	-0.0024293970586792804	0.47081027397338737	1.8063667151685565	0.13488696533874833	0.2653164149796297	0.4111018990530575	0.21239336817062615	0.042274594381391195	0.1468155863234996	0.19495508561353883	0.04548080650381948	0.3216847482575843	0.27698921451565095	0.3329964818031686	0.44494780397165173	0.33664386774958266	0.2734183003284359	0.7159186735880727	0.31496634817149666	0.1782546293417121	0.5849213170651487	0.25387882437339226	0.09053743670692047	0.5434057782099414	0.27044127122484274	0.07084634766551444	0.5450622991286967	0.3239034699922821	0.06479913399512882	0.5859842245022715	-0.02290461048414373	0.21972765490290466	0.4286148852878451	-0.08006482500554088	0.16421751761626321	0.6732532901215622	0.012768856175302547	0.11636309439806479	0.5416557725563288	0.09040761931708792	0.0633386107786399	0.4897710373508106	0.11456421398711776	0.010888309158453959	0.48082556912060204	0.09882887764099832	0.028002626065567734	0.5345229628867901
100	1.7543859649122806	0.2070274902368321	0.4083155809423692	0.9469285277096567	0.1833148659117845	0.3557878494571441	1.3253231043822375	0.16039513334805003	0.47845619257360417	1.7766224895363325	0.18122372169033543	0.2826108139166181	1.8190653371866392	0.24294497831981723	0.3373838553350956	1.8335078302738919	0.14183908103375437	0.4962562080315065	1.825928309352622	-0.011592739078302458	0.35437306277357844	0.9344985955052455	-0.0068020264093234485	0.3779173512760276	1.3312014128031688	-0.013787095369654681	0.407403688105941	1.7300642393979455	0.003675895813181931	0.2461933837291748	1.8092260418405866	-0.055457198129319	0.2840412514865882	1.7939112847127965	0.0046601914644628165	0.4648102943555188	1.8047902181822943	0.13487011698141418	0.2654435997841378	0.4110746818305218	0.21248226997142836	0.04213484875293655	0.14668577227787344	0.1993555150692351	0.03486305778626251	0.32064057924387307	0.2812007839191473	0.3349038219162369	0.44507066174542176	0.33687190598774075	0.273892860074896	0.7158524046637722	0.314993450981609	0.1786262301260694	0.5818586533192256	0.25084107624880525	0.08716616373617987	0.5458931206942459	0.2673169653755969	0.06796293370696999	0.5465808835316919	0.3310992504094689	0.075516424449269	0.5915734892803057	-0.02847583068094416	0.23050984159867807	0.43287346164088386	-0.08017265745267949	0.16430962744870328	0.6734056918183461	0.01263233088352998	0.11626232779860089	0.5416259596209115	0.09037159432366032	0.06399323815925108	0.49963052536526037	0.11829964144081007	0.012699593126506422	0.48703778021127253	0.0985476799694155	0.0288083647524308	0.5354944698042569
